<?xml version="1.0" standalone="no"?><!DOCTYPE svg PUBLIC "-//W3C//DTD SVG 1.1//EN" "http://www.w3.org/Graphics/SVG/1.1/DTD/svg11.dtd"><svg xmlns="http://www.w3.org/2000/svg" viewBox="0 0 650 400" version="1.1"><clipPath id="box"><rect x="0" y="0" width="650" height="400" style="fill:none;stroke:none;" /></clipPath><g clip-path="url(#box)"><rect x="0.00" y="0.00" width="650.00" height="400.00" style="fill:#FFFFFF;stroke:none;" /><path d="M0.00 397.00 L650.00 397.00 M0.00 318.00 L650.00 318.00 M0.00 240.00 L650.00 240.00 M0.00 162.00 L650.00 162.00 M0.00 84.00 L650.00 84.00 M0.00 6.00 L650.00 6.00 M25.00 0.00 L25.00 400.00 M103.00 0.00 L103.00 400.00 M181.00 0.00 L181.00 400.00 M259.00 0.00 L259.00 400.00 M337.00 0.00 L337.00 400.00 M415.00 0.00 L415.00 400.00 M493.00 0.00 L493.00 400.00 M572.00 0.00 L572.00 400.00 " style="fill:none;stroke:#D0D0D0;stroke-width:1;" /><path d="M337.69 0.00 L337.69 400.00 " style="fill:none;stroke:#000000;stroke-width:1;" /><path d="M331.19 475.13 L344.19 475.13 M331.19 397.00 L344.19 397.00 M331.19 318.88 L344.19 318.88 M331.19 240.75 L344.19 240.75 M331.19 162.62 L344.19 162.62 M331.19 84.50 L344.19 84.50 M331.19 6.37 L344.19 6.37 " style="fill:none;stroke:#000000;stroke-width:1;" /><path d="M0.00 240.75 L650.00 240.75 " style="fill:none;stroke:#000000;stroke-width:1;" /><path d="M-52.94 234.25 L-52.94 247.25 M25.19 234.25 L25.19 247.25 M103.31 234.25 L103.31 247.25 M181.44 234.25 L181.44 247.25 M259.56 234.25 L259.56 247.25 M337.69 234.25 L337.69 247.25 M415.81 234.25 L415.81 247.25 M493.94 234.25 L493.94 247.25 M572.06 234.25 L572.06 247.25 " style="fill:none;stroke:#000000;stroke-width:1;" /><text x="345.8125000000002" y="321.375" text-anchor="start" style="font:10px Droid Sans,Trebuchet MS,Arial,Helvetica,sans-serif;stroke:none;fill:#000000">-1</text><text x="345.8125000000002" y="243.24999999999994" text-anchor="start" style="font:10px Droid Sans,Trebuchet MS,Arial,Helvetica,sans-serif;stroke:none;fill:#000000">0</text><text x="345.8125000000002" y="165.12499999999991" text-anchor="start" style="font:10px Droid Sans,Trebuchet MS,Arial,Helvetica,sans-serif;stroke:none;fill:#000000">1</text><text x="345.8125000000002" y="86.99999999999987" text-anchor="start" style="font:10px Droid Sans,Trebuchet MS,Arial,Helvetica,sans-serif;stroke:none;fill:#000000">2</text><text x="25.187500000000146" y="256.87499999999994" text-anchor="middle" style="font:10px Droid Sans,Trebuchet MS,Arial,Helvetica,sans-serif;stroke:none;fill:#000000">-4</text><text x="103.31250000000016" y="256.87499999999994" text-anchor="middle" style="font:10px Droid Sans,Trebuchet MS,Arial,Helvetica,sans-serif;stroke:none;fill:#000000">-3</text><text x="181.43750000000017" y="256.87499999999994" text-anchor="middle" style="font:10px Droid Sans,Trebuchet MS,Arial,Helvetica,sans-serif;stroke:none;fill:#000000">-2</text><text x="259.56250000000017" y="256.87499999999994" text-anchor="middle" style="font:10px Droid Sans,Trebuchet MS,Arial,Helvetica,sans-serif;stroke:none;fill:#000000">-1</text><text x="337.6875000000002" y="256.87499999999994" text-anchor="middle" style="font:10px Droid Sans,Trebuchet MS,Arial,Helvetica,sans-serif;stroke:none;fill:#000000">0</text><text x="415.8125000000002" y="256.87499999999994" text-anchor="middle" style="font:10px Droid Sans,Trebuchet MS,Arial,Helvetica,sans-serif;stroke:none;fill:#000000">1</text><text x="493.9375000000002" y="256.87499999999994" text-anchor="middle" style="font:10px Droid Sans,Trebuchet MS,Arial,Helvetica,sans-serif;stroke:none;fill:#000000">2</text><text x="572.0625000000002" y="256.87499999999994" text-anchor="middle" style="font:10px Droid Sans,Trebuchet MS,Arial,Helvetica,sans-serif;stroke:none;fill:#000000">3</text><path d="M-10.00 200.00 L-0.25 257.48 L0.75 257.44 L2.75 257.35 L4.75 257.25 L6.75 257.14 L8.75 257.02 L10.75 256.88 L12.75 256.73 L14.75 256.57 L16.75 256.40 L18.75 256.21 L20.75 256.02 L22.75 255.80 L24.75 255.58 L26.75 255.35 L28.75 255.10 L30.75 254.84 L32.75 254.56 L34.75 254.28 L36.75 253.98 L38.75 253.66 L40.75 253.34 L42.75 253.00 L44.75 252.65 L46.75 252.29 L48.75 251.91 L50.75 251.53 L52.75 251.12 L54.75 250.71 L56.75 250.29 L58.75 249.85 L60.75 249.40 L62.75 248.93 L64.75 248.46 L66.75 247.97 L68.75 247.47 L70.75 246.96 L72.75 246.44 L74.75 245.91 L76.75 245.36 L78.75 244.80 L80.75 244.23 L82.75 243.65 L84.75 243.06 L86.75 242.46 L88.75 241.85 L90.75 241.22 L92.75 240.59 L94.75 239.95 L96.75 239.29 L98.75 238.63 L100.75 237.95 L102.75 237.27 L104.75 236.58 L106.75 235.87 L108.75 235.16 L110.75 234.44 L112.75 233.71 L114.75 232.97 L116.75 232.23 L118.75 231.47 L120.75 230.71 L122.75 229.94 L124.75 229.17 L126.75 228.38 L128.75 227.59 L130.75 226.80 L132.75 225.99 L134.75 225.18 L136.75 224.37 L138.75 223.55 L140.75 222.72 L142.75 221.89 L144.75 221.06 L146.75 220.22 L148.75 219.37 L150.75 218.52 L152.75 217.67 L154.75 216.82 L156.75 215.96 L158.75 215.10 L160.75 214.23 L162.75 213.37 L164.75 212.50 L166.75 211.63 L168.75 210.76 L170.75 209.89 L172.75 209.02 L174.75 208.15 L176.75 207.27 L178.75 206.40 L180.75 205.53 L182.75 204.66 L184.75 203.79 L186.75 202.92 L188.75 202.06 L190.75 201.19 L192.75 200.33 L194.75 199.47 L196.75 198.62 L198.75 197.76 L200.75 196.91 L202.75 196.07 L204.75 195.23 L206.75 194.39 L208.75 193.56 L210.75 192.74 L212.75 191.92 L214.75 191.10 L216.75 190.29 L218.75 189.49 L220.75 188.70 L222.75 187.91 L224.75 187.13 L226.75 186.36 L228.75 185.59 L230.75 184.83 L232.75 184.09 L234.75 183.35 L236.75 182.62 L238.75 181.90 L240.75 181.18 L242.75 180.48 L244.75 179.79 L246.75 179.11 L248.75 178.44 L250.75 177.78 L252.75 177.13 L254.75 176.49 L256.75 175.87 L258.75 175.26 L260.75 174.65 L262.75 174.07 L264.75 173.49 L266.75 172.93 L268.75 172.38 L270.75 171.84 L272.75 171.32 L274.75 170.81 L276.75 170.31 L278.75 169.83 L280.75 169.36 L282.75 168.91 L284.75 168.47 L286.75 168.04 L288.75 167.63 L290.75 167.24 L292.75 166.86 L294.75 166.50 L296.75 166.15 L298.75 165.82 L300.75 165.50 L302.75 165.20 L304.75 164.92 L306.75 164.65 L308.75 164.40 L310.75 164.16 L312.75 163.94 L314.75 163.74 L316.75 163.56 L318.75 163.39 L320.75 163.24 L322.75 163.10 L324.75 162.98 L326.75 162.88 L328.75 162.80 L330.75 162.73 L332.75 162.68 L334.75 162.64 L336.75 162.63 L338.75 162.63 L340.75 162.65 L342.75 162.68 L344.75 162.73 L346.75 162.80 L348.75 162.89 L350.75 162.99 L352.75 163.11 L354.75 163.24 L356.75 163.40 L358.75 163.57 L360.75 163.75 L362.75 163.96 L364.75 164.18 L366.75 164.41 L368.75 164.67 L370.75 164.94 L372.75 165.22 L374.75 165.52 L376.75 165.84 L378.75 166.17 L380.75 166.52 L382.75 166.89 L384.75 167.27 L386.75 167.66 L388.75 168.07 L390.75 168.49 L392.75 168.93 L394.75 169.39 L396.75 169.86 L398.75 170.34 L400.75 170.84 L402.75 171.35 L404.75 171.87 L406.75 172.41 L408.75 172.96 L410.75 173.53 L412.75 174.10 L414.75 174.69 L416.75 175.29 L418.75 175.91 L420.75 176.53 L422.75 177.17 L424.75 177.82 L426.75 178.48 L428.75 179.15 L430.75 179.83 L432.75 180.53 L434.75 181.23 L436.75 181.94 L438.75 182.66 L440.75 183.39 L442.75 184.13 L444.75 184.88 L446.75 185.64 L448.75 186.40 L450.75 187.18 L452.75 187.96 L454.75 188.75 L456.75 189.54 L458.75 190.35 L460.75 191.15 L462.75 191.97 L464.75 192.79 L466.75 193.61 L468.75 194.45 L470.75 195.28 L472.75 196.12 L474.75 196.97 L476.75 197.82 L478.75 198.67 L480.75 199.53 L482.75 200.38 L484.75 201.25 L486.75 202.11 L488.75 202.98 L490.75 203.84 L492.75 204.71 L494.75 205.58 L496.75 206.46 L498.75 207.33 L500.75 208.20 L502.75 209.07 L504.75 209.94 L506.75 210.82 L508.75 211.69 L510.75 212.56 L512.75 213.42 L514.75 214.29 L516.75 215.15 L518.75 216.01 L520.75 216.87 L522.75 217.72 L524.75 218.58 L526.75 219.42 L528.75 220.27 L530.75 221.11 L532.75 221.94 L534.75 222.77 L536.75 223.60 L538.75 224.42 L540.75 225.23 L542.75 226.04 L544.75 226.85 L546.75 227.64 L548.75 228.43 L550.75 229.22 L552.75 229.99 L554.75 230.76 L556.75 231.52 L558.75 232.28 L560.75 233.02 L562.75 233.76 L564.75 234.49 L566.75 235.21 L568.75 235.92 L570.75 236.62 L572.75 237.31 L574.75 238.00 L576.75 238.67 L578.75 239.33 L580.75 239.99 L582.75 240.63 L584.75 241.26 L586.75 241.89 L588.75 242.50 L590.75 243.10 L592.75 243.69 L594.75 244.27 L596.75 244.84 L598.75 245.40 L600.75 245.94 L602.75 246.47 L604.75 247.00 L606.75 247.51 L608.75 248.00 L610.75 248.49 L612.75 248.96 L614.75 249.43 L616.75 249.88 L618.75 250.31 L620.75 250.74 L622.75 251.15 L624.75 251.55 L626.75 251.94 L628.75 252.31 L630.75 252.67 L632.75 253.02 L634.75 253.36 L636.75 253.68 L638.75 254.00 L640.75 254.29 L642.75 254.58 L644.75 254.85 L646.75 255.11 L648.75 255.36 " style="fill:none;stroke:#000000;stroke-width:1;" /></g></svg>